<?xml version="1.0" encoding="utf-8"?>
<!-- Generator: Adobe Illustrator 27.2.0, SVG Export Plug-In . SVG Version: 6.00 Build 0)  -->
<svg version="1.1" id="Capa_1" xmlns="http://www.w3.org/2000/svg" xmlns:xlink="http://www.w3.org/1999/xlink" x="0px" y="0px"
	 viewBox="0 0 31 49" style="enable-background:new 0 0 31 49;" xml:space="preserve">
<style type="text/css">
	.st0{fill-rule:evenodd;clip-rule:evenodd;fill:#0A3871;}
</style>
<path class="st0" d="M23.2,24.1c0,0.3-0.1,0.6-0.3,0.8c-0.2,0.2-0.4,0.4-0.6,0.6c-0.5,0.3-0.9,0.5-1.3,0.7c-0.9,0.3-1.9,0.7-2.9,1
	c-1.1,0.4-2,0.8-2.9,1c-1.1,0.4-2.1,0.7-3,1.1c-0.7,0.3-1.4,0.7-2,1.3c-0.6,0.5-1.1,1.2-1.5,1.9c-0.4,0.8-0.7,1.7-0.7,2.9
	c0,2.3,0.5,4,1.6,5.1c1.1,1.1,3,1.7,6,1.7c3,0,5-0.6,6.1-1.8c1.1-1.2,1.6-2.9,1.6-5.1L23.2,24.1L23.2,24.1z M15.5,0
	c5.2,0,9.1,1,11.5,3.2c2.5,2.1,3.7,4.7,3.7,7.9V38c0,1.1-0.2,2.3-0.6,3.6c-0.4,1.3-1.1,2.5-2.3,3.6c-1.1,1.1-2.7,2-4.6,2.7
	c-2,0.7-4.5,1.1-7.7,1.1c-3.1,0-5.7-0.4-7.7-1.1c-2-0.7-3.5-1.6-4.6-2.7c-1-1-1.8-2.2-2.3-3.6c-0.4-1.3-0.6-2.5-0.6-3.6v-4.3
	c0-2.3,0.6-4.4,1.8-6.3c1.2-1.9,2.8-3.2,5-4c1.1-0.4,2.3-0.8,3.7-1.3c1.4-0.5,2.7-1,4-1.4c1.3-0.4,2.4-0.9,3.4-1.3
	c0.6-0.2,1.2-0.5,1.8-0.7l1-0.5c0.4-0.2,0.7-0.5,1.1-1c0.4-0.4,0.7-0.9,1-1.5c0.3-0.6,0.4-1.2,0.4-1.9v-1.7c0-0.6-0.1-1.3-0.4-1.9
	c-0.2-0.7-0.6-1.3-1.2-1.8c-0.6-0.5-1.4-1-2.3-1.3c-1-0.3-2.2-0.5-3.7-0.5c-3,0-5,0.6-6,1.9c-0.9,1.1-1.4,2.5-1.5,4
	c0,0.3-0.3,0.5-0.6,0.5l-6.5,0.1c-0.2,0-0.3-0.1-0.4-0.2c-0.1-0.1-0.2-0.3-0.2-0.4v-1.6c0-1.5,0.3-2.9,0.9-4.3
	c0.6-1.4,1.5-2.5,2.7-3.5c1.2-1,2.8-1.8,4.8-2.3C10.5,0.3,12.8,0,15.5,0L15.5,0z"/>
</svg>
